<svg width="1440" height="100" viewBox="0 0 1440 100" fill="none" xmlns="http://www.w3.org/2000/svg">
<path fill-rule="evenodd" clip-rule="evenodd" d="M-1 0L58.6847 4.69653C119.495 9.39306 238.865 18.7861 359.36 34.6821C479.856 50.9393 599.225 74.0607 719.721 78.7572C840.216 83.4538 959.586 69.3642 1080.08 65.0289C1200.58 60.3324 1319.95 65.0289 1380.76 67.1965L1440.44 69.3642V125H1380.76C1319.95 125 1200.58 125 1080.08 125C959.586 125 840.216 125 719.721 125C599.225 125 479.856 125 359.36 125C238.865 125 119.495 125 58.6847 125H-1V0Z" fill="#003A62"/>
<path fill-rule="evenodd" clip-rule="evenodd" d="M-1 50L47.048 60C95.0961 70 191.192 90 287.288 85C383.384 80 479.48 50 575.577 30C671.673 10 767.769 0 863.865 0C959.961 0 1056.06 10 1152.15 27.5C1248.25 45 1344.35 70 1392.39 82.5L1440.44 95V125H1392.39C1344.35 125 1248.25 125 1152.15 125C1056.06 125 959.961 125 863.865 125C767.769 125 671.673 125 575.577 125C479.48 125 383.384 125 287.288 125C191.192 125 95.0961 125 47.048 125H-1V50Z" fill="#006C9D" fill-opacity="0.8"/>
</svg>
