<svg width="1440" height="125" viewBox="0 0 1440 125" fill="none" xmlns="http://www.w3.org/2000/svg">
<path fill-rule="evenodd" clip-rule="evenodd" d="M0 0L59.6847 4.69653C120.495 9.39306 239.865 18.7861 360.36 34.6821C480.856 50.9393 600.225 74.0607 720.721 78.7572C841.216 83.4538 960.586 69.3642 1081.08 65.0289C1201.58 60.3324 1320.95 65.0289 1381.76 67.1965L1441.44 69.3642V125H1381.76C1320.95 125 1201.58 125 1081.08 125C960.586 125 841.216 125 720.721 125C600.225 125 480.856 125 360.36 125C239.865 125 120.495 125 59.6847 125H0V0Z" fill="#610A5F"/>
<path fill-rule="evenodd" clip-rule="evenodd" d="M0 50L48.048 60C96.0961 70 192.192 90 288.288 85C384.384 80 480.48 50 576.577 30C672.673 10 768.769 0 864.865 0C960.961 0 1057.06 10 1153.15 27.5C1249.25 45 1345.35 70 1393.39 82.5L1441.44 95V125H1393.39C1345.35 125 1249.25 125 1153.15 125C1057.06 125 960.961 125 864.865 125C768.769 125 672.673 125 576.577 125C480.48 125 384.384 125 288.288 125C192.192 125 96.0961 125 48.048 125H0V50Z" fill="#6E0B6C" fill-opacity="0.8"/>
</svg>
