<svg width="390" height="579" viewBox="0 0 390 579" fill="none" xmlns="http://www.w3.org/2000/svg">
<path d="M44.5687 -112.381C46.5017 -115.729 50.7828 -116.876 54.1308 -114.943L591.42 195.261C594.768 197.194 595.915 201.475 593.982 204.823L420.352 505.559C418.131 509.405 412.236 507.114 413.197 502.777C436.706 396.604 347.414 299.418 239.634 313.871L128.256 328.806C27.552 336.707 -70.7317 295.29 -135.409 217.698L-141.287 210.646C-141.516 210.372 -141.549 209.984 -141.371 209.675L44.5687 -112.381Z" fill="#006C9D"/>
<path d="M-120 -65C-120 -68.866 -116.866 -72 -113 -72H436C439.866 -72 443 -68.866 443 -65V235.068C443 238.99 437.491 239.858 436.285 236.126C406.994 145.474 297.095 110.709 220.997 168.023L140.082 228.966C66.0062 278.664 -27.2773 290.204 -111.23 260.057L-119.49 257.091C-119.796 256.981 -120 256.691 -120 256.365V-65Z" fill="#003A62"/>
</svg>
