<svg width="390" height="130" viewBox="0 0 390 130" fill="none" xmlns="http://www.w3.org/2000/svg">
<path d="M328.974 269.615C327.195 273.048 322.698 275.131 318.929 274.269L-75.7203 184.008C-79.489 183.146 -81.1017 179.665 -79.3225 176.233L-6.15031 35.0794C-4.9004 32.6683 -0.92224 32.7963 -0.988855 35.2454C-2.44207 88.6706 50.9623 122.753 114.711 109.085L212.03 88.2185C279.848 76.3459 345.732 85.0346 397.763 112.713L407.113 117.686C407.399 117.838 407.488 118.159 407.328 118.466L328.974 269.615Z" fill="#003A62"/>
<path d="M338.124 309.425C336.345 312.858 331.848 314.941 328.079 314.079L-118.176 212.015C-121.945 211.153 -123.558 207.672 -121.778 204.24L-36.8536 40.4151C-35.4383 37.6849 -30.9316 37.8474 -31.0363 40.6248C-33.3393 101.718 27.8625 140.711 100.604 124.496L208.854 100.365C285.476 86.3437 360.071 96.0553 418.575 127.669L428.802 133.196C429.114 133.364 429.21 133.716 429.035 134.053L338.124 309.425Z" fill="#006C9D"/>
</svg>
