<svg width="390" height="130" viewBox="0 0 390 130" fill="none" xmlns="http://www.w3.org/2000/svg">
<path d="M328.974 269.615C327.195 273.048 322.698 275.131 318.929 274.269L-75.7203 184.008C-79.489 183.146 -81.1017 179.665 -79.3225 176.233L-6.15031 35.0796C-4.9004 32.6684 -0.92224 32.7964 -0.988855 35.2456C-2.44207 88.6707 50.9623 122.753 114.711 109.085L212.03 88.2187C279.848 76.3461 345.732 85.0348 397.763 112.713L407.113 117.686C407.399 117.839 407.488 118.159 407.328 118.466L328.974 269.615Z" fill="#5C4E03" fill-opacity="0.8"/>
<path d="M338.124 309.426C336.345 312.858 331.848 314.941 328.079 314.079L-118.176 212.015C-121.945 211.154 -123.558 207.672 -121.778 204.24L-36.8536 40.4152C-35.4383 37.685 -30.9315 37.8475 -31.0362 40.625C-33.3393 101.718 27.8625 140.711 100.604 124.496L208.854 100.365C285.476 86.3438 360.071 96.0554 418.575 127.669L428.802 133.196C429.114 133.365 429.21 133.716 429.035 134.053L338.124 309.426Z" fill="#E8C607"/>
</svg>
